<svg xmlns="http://www.w3.org/2000/svg" viewBox="0 0 400 240" role="img" aria-hidden="true">
  <rect width="400" height="240" fill="#f4f4f4"/>
  <g fill="none" stroke="#ec8301" stroke-width="8" stroke-linejoin="round">
    <path d="M70 128c2-28 28-48 62-48 18 0 34 8 48 20l-8 40c-18 10-40 14-62 8-22-6-38-14-40-20z"/>
    <path d="M330 128c-2-28-28-48-62-48-18 0-34 8-48 20l8 40c18 10 40 14 62 8 22-6 38-14 40-20z"/>
    <path d="M184 118h32" stroke-linecap="round"/>
    <path d="M70 116H48" stroke-linecap="round"/>
    <path d="M330 116h22" stroke-linecap="round"/>
  </g>
</svg>
